<?xml version="1.0" encoding="UTF-8" standalone="no"?>
<svg
   width="72"
   height="64"
   viewBox="0 0 72 64"
   fill="none"
   version="1.1"
   id="svg6"
   sodipodi:docname="viktis.svg"
   inkscape:version="1.4 (e7c3feb1, 2024-10-09)"
   xmlns:inkscape="http://www.inkscape.org/namespaces/inkscape"
   xmlns:sodipodi="http://sodipodi.sourceforge.net/DTD/sodipodi-0.dtd"
   xmlns="http://www.w3.org/2000/svg"
   xmlns:svg="http://www.w3.org/2000/svg">
  <sodipodi:namedview
     id="namedview6"
     pagecolor="#ffffff"
     bordercolor="#000000"
     borderopacity="0.25"
     inkscape:showpageshadow="2"
     inkscape:pageopacity="0.0"
     inkscape:pagecheckerboard="0"
     inkscape:deskcolor="#d1d1d1"
     inkscape:zoom="9.1923881"
     inkscape:cx="49.98701"
     inkscape:cy="31.982984"
     inkscape:window-width="2560"
     inkscape:window-height="1387"
     inkscape:window-x="0"
     inkscape:window-y="25"
     inkscape:window-maximized="1"
     inkscape:current-layer="svg6" />
  <!-- Background circle with subtle shadow -->
  <defs
     id="defs2">
    <filter
       id="simple-shadow"
       x="-0.04"
       y="-0.04"
       width="1.08"
       height="1.0966667">
      <feGaussianBlur
         in="SourceAlpha"
         stdDeviation="1"
         id="feGaussianBlur1" />
      <feOffset
         dx="0"
         dy="1"
         id="feOffset1" />
      <feComponentTransfer
         id="feComponentTransfer1">
        <feFuncA
           type="linear"
           slope="0.3"
           id="feFuncA1" />
      </feComponentTransfer>
      <feMerge
         id="feMerge2">
        <feMergeNode
           id="feMergeNode1" />
        <feMergeNode
           in="SourceGraphic"
           id="feMergeNode2" />
      </feMerge>
    </filter>
  </defs>
  <!-- Orange dots -->
  <!-- Curve -->
  <rect
     style="fill:#006b8a;fill-opacity:1;stroke:#308a00;stroke-width:0;stroke-dasharray:none;stroke-opacity:1"
     id="rect27"
     width="72.668823"
     height="64.292328"
     x="-0.43514264"
     y="-0.10878566" />
  <ellipse
     style="fill:#dbfff5;fill-opacity:1;stroke:#308a00;stroke-width:0;stroke-dasharray:none;stroke-opacity:1"
     id="path27"
     cx="35.57291"
     cy="30.895128"
     rx="27.305201"
     ry="25.782202" />
  <path
     style="fill:#abd3bb;fill-opacity:1;stroke:none;stroke-width:0;stroke-dasharray:none"
     d="m 4.8392563,49.871912 c -0.854834,-0.248794 -1.509608,-1.460124 -1.260854,-2.332578 0.162521,-0.570009 0.201101,-0.61128 2.29044,-2.450176 3.7690344,-3.317253 6.4352687,-5.801639 10.7966487,-10.060273 1.845077,-1.801609 2.972988,-2.820232 3.317963,-2.996469 0.453014,-0.231432 0.667571,-0.266731 1.610499,-0.264958 0.96666,0.0018 1.178753,0.03969 1.903749,0.339902 1.328646,0.550186 2.910637,1.523396 6.283744,3.865638 5.600214,3.888715 7.097001,4.776274 8.187798,4.855175 1.576546,0.114037 3.215293,-1.392084 5.109185,-4.695694 1.193224,-2.081401 2.160217,-4.255391 4.45865,-10.02392 0.786711,-1.97446 1.607012,-3.908125 1.822889,-4.297034 0.486672,-0.876749 1.644774,-2.047295 2.367612,-2.39305 0.740626,-0.354265 1.988251,-0.422914 2.836583,-0.156081 1.726063,0.542914 3.117436,1.909175 6.633999,6.514269 1.503904,1.969429 2.98049,3.603413 3.605211,3.989511 0.210774,0.130266 0.607814,0.278805 0.882309,0.330086 0.8668,0.161935 1.488391,0.765175 1.69611,1.646033 0.181131,0.76811 -0.445299,1.771516 -1.312799,2.102817 -0.428822,0.163768 -0.596619,0.173125 -1.212583,0.06761 -0.393189,-0.06735 -1.060349,-0.293675 -1.482576,-0.502942 -1.537806,-0.762177 -2.710717,-1.951048 -5.483644,-5.558261 -0.872874,-1.135494 -1.950445,-2.497662 -2.394602,-3.027039 -0.828361,-0.9873 -1.796583,-1.816315 -2.121307,-1.816315 -0.331613,0 -0.799768,0.95685 -2.227106,4.551914 -2.750323,6.927293 -4.012808,9.61548 -5.730133,12.201077 -2.777646,4.182009 -5.916859,5.733696 -9.370583,4.631804 -1.367032,-0.436144 -3.705164,-1.885408 -8.850045,-5.485594 -2.599926,-1.819327 -4.256587,-2.852917 -5.024465,-3.134761 l -0.50986,-0.187141 -2.213095,2.169435 c -5.546349,5.436931 -12.4885567,11.73581 -13.3150187,12.081129 -0.402011,0.167966 -0.802705,0.179076 -1.294719,0.03588 z"
     id="path17" />
</svg>
